<svg width="49" height="24" viewBox="0 0 49 24" fill="none" xmlns="http://www.w3.org/2000/svg">
<path d="M0 7.33223L19.8421 6.1784V8.48605L0 7.33223Z" fill="url(#paint0_linear)"/>
<path d="M0 7.33228L19.8421 6.92019V7.74436L0 7.33228Z" fill="url(#paint1_linear)"/>
<path d="M26.3979 9.36127C25.176 5.37667 23.0833 3.83212 22.1421 3.01465C19.6173 4.78949 18.0414 6.8546 17.6464 7.6302L17.0754 8.01086C17.0754 8.01086 18.4553 8.01086 19.5659 8.92065C20.2559 9.75335 20.2159 8.92065 20.2159 8.92065C20.2159 8.92065 16.0286 8.77219 14.6963 9.96177C19.5022 9.8666 21.6662 13.441 25.9268 14.5373C26.1429 13.4981 26.4645 11.5463 26.3979 9.36127Z" fill="url(#paint2_linear)"/>
<path d="M26.3965 0.804199C28.3169 3.17288 28.6862 6.35238 28.5149 9.12646C28.9955 11.1649 29.1753 13.2043 29.0649 14.7394C29.9585 12.0243 30.2317 9.49285 30.186 7.30213C28.9317 2.8398 26.3965 0.804199 26.3965 0.804199Z" fill="url(#paint3_linear)"/>
<path d="M35.6309 9.74486C35.2835 12.1564 34.6631 14.0426 34.6621 14.0435C36.4579 11.5016 37.4429 8.87695 37.9777 6.62722C37.6218 3.93212 36.7177 1.97266 36.7177 1.97266C36.9566 4.78481 36.3884 7.50561 35.6309 9.74486Z" fill="url(#paint4_linear)"/>
<path d="M37.4952 12.7388C36.7871 13.1699 36.0629 13.522 35.333 13.8037C36.0629 13.521 36.7862 13.1689 37.4952 12.7388Z" fill="url(#paint5_linear)"/>
<path d="M40.7813 4.74491C40.7823 4.73897 40.7843 4.73204 40.7853 4.7261C40.7734 4.7162 40.7724 4.72313 40.7813 4.74491Z" fill="url(#paint6_linear)"/>
<path d="M40.207 6.84826C40.996 9.00472 41.1968 10.5949 41.1968 10.5949C41.428 9.53955 41.685 7.97407 41.7754 6.79021C41.3043 5.67772 40.8351 4.88403 40.7799 4.74414C40.6277 5.44837 40.4326 6.1545 40.207 6.84826Z" fill="url(#paint7_linear)"/>
<path d="M32.2126 9.3198C32.2307 12.2719 31.7178 14.6776 31.7178 14.6776C33.0453 12.0178 33.8181 9.66716 34.2016 7.63061C33.7791 3.09119 31.792 0.101074 31.792 0.101074C32.7855 3.2111 32.6675 6.55238 32.2126 9.3198Z" fill="url(#paint8_linear)"/>
<path d="M44.9082 2.88525C45.7504 4.29276 46.2329 5.96483 46.5041 7.55029L48.2076 3.07559L44.9082 2.88525Z" fill="url(#paint9_linear)"/>
<path d="M42.7832 4.47168C43.0906 5.23396 43.2314 6.40831 43.2771 7.59883C44.245 9.69629 44.4324 11.9898 44.4324 11.9898C44.8083 10.0484 44.7303 8.23835 44.4876 6.79658C43.5959 5.38622 42.7832 4.47168 42.7832 4.47168Z" fill="url(#paint10_linear)"/>
<path d="M23.7598 9.47966C24.6696 9.47966 25.4776 9.03904 25.98 8.35955C25.1987 6.22784 24.169 4.88885 23.2954 4C21.9926 4.22079 21 5.35421 21 6.71985C21 8.24345 22.2353 9.47966 23.7598 9.47966Z" fill="url(#paint11_linear)"/>
<path opacity="0.37" d="M23.2217 9.71335C23.9364 9.71335 24.5864 9.44118 25.0765 8.9958C24.3066 6.99541 23.3197 5.71829 22.4775 4.86084C21.6734 4.99693 20.9872 5.48227 20.5799 6.15415C20.5038 6.40729 20.4619 6.67566 20.4619 6.95354C20.4619 8.4781 21.6972 9.71335 23.2217 9.71335Z" fill="#666666"/>
<path d="M36.7178 1.97266C35.8042 1.49588 34.8716 1.14186 33.9408 0.890625C34.902 3.61047 34.9296 8.2441 31.7178 14.6773C32.3259 14.6107 32.9426 14.506 33.5602 14.3566C34.6974 12.3648 37.1727 7.33336 36.7178 1.97266Z" fill="url(#paint12_linear)"/>
<path d="M29.0647 14.7393C29.6157 14.7726 30.1829 14.7793 30.7615 14.7526C31.5952 12.6152 33.6603 5.95071 31.7922 0.0999034C30.7387 -0.0209574 29.7099 -0.0266679 28.7383 0.0532716C29.511 1.82241 31.3944 7.65989 29.0647 14.7393Z" fill="url(#paint13_linear)"/>
<path d="M27.5256 14.57C28.1965 12.3393 29.9476 5.18469 26.3969 0.804199C26.1647 0.859395 25.9382 0.919351 25.7184 0.982161C25.0875 1.16488 24.4993 1.39328 23.9512 1.65308C27.3857 5.57963 26.4217 12.03 25.9601 14.235C26.4521 14.3682 26.9765 14.4815 27.5256 14.57Z" fill="url(#paint14_linear)"/>
<path opacity="0.45" d="M26.4357 9.03774C26.3424 8.73321 26.2444 8.44295 26.1416 8.16602C25.9922 9.75624 25.4593 11.6015 24.2393 13.619C24.776 13.8531 25.3517 14.053 25.9646 14.211C26.1806 13.1717 26.5014 11.2208 26.4357 9.03774Z" fill="url(#paint15_linear)"/>
<path d="M44.9087 2.88525C44.5109 3.16028 43.8618 3.67799 43.5449 3.80551C44.1197 4.73338 45.1865 8.09749 44.4328 11.9898C45.0676 12.339 45.9174 12.7473 46.7691 13.2307C46.7929 13.0376 47.3049 6.89079 44.9087 2.88525Z" fill="url(#paint16_linear)"/>
<path d="M40.7851 4.72524C40.0238 4.12284 39.2853 3.667 38.5306 3.10742C38.3298 5.72068 37.5266 9.98887 34.6621 14.0429C35.6176 13.7289 36.5702 13.3006 37.4952 12.7382C38.7067 10.7873 40.1342 7.7363 40.7851 4.72524Z" fill="url(#paint17_linear)"/>
<path d="M43.1643 11.1961C43.3337 9.70293 43.4498 6.12088 42.7837 4.4707C42.4877 4.74954 42.0062 5.19396 41.7683 5.45377C41.9386 6.3626 41.538 9.03486 41.1973 10.5927C41.7369 10.7526 42.4344 10.9106 43.1643 11.1961Z" fill="url(#paint18_linear)"/>
<path d="M25.6094 6.35887C25.6094 7.42093 24.7491 8.28123 23.687 8.28123C22.625 8.28123 21.7646 7.42093 21.7646 6.35887C21.7646 5.29682 22.625 4.43652 23.687 4.43652C24.7481 4.43652 25.6094 5.29682 25.6094 6.35887Z" fill="white"/>
<path d="M25.4658 6.21532C25.4658 7.27642 24.6045 8.13767 23.5434 8.13767C22.4814 8.13767 21.6211 7.27737 21.6211 6.21532C21.6211 5.15327 22.4814 4.29297 23.5434 4.29297C24.6055 4.29297 25.4658 5.15422 25.4658 6.21532Z" fill="url(#paint19_linear)"/>
<path d="M24.5312 6.30857C24.5312 6.83484 24.1049 7.26118 23.5786 7.26118C23.0523 7.26118 22.626 6.83484 22.626 6.30857C22.626 5.7823 23.0523 5.35596 23.5786 5.35596C24.1049 5.35596 24.5312 5.7823 24.5312 6.30857Z" fill="black"/>
<path d="M23.5386 5.97386C23.5386 6.15467 23.4091 6.30218 23.2493 6.30218C23.0894 6.30218 22.96 6.15467 22.96 5.97386C22.96 5.79304 23.0894 5.64648 23.2493 5.64648C23.4091 5.64648 23.5386 5.79304 23.5386 5.97386Z" fill="white"/>
<path opacity="0.45" d="M38.5306 3.10791C38.3298 5.72117 37.5266 9.98936 34.6621 14.0434C34.6621 14.0434 39.4423 8.77695 39.7145 3.94156C39.3205 3.66844 38.9284 3.40197 38.5306 3.10791Z" fill="url(#paint20_linear)"/>
<path opacity="0.45" d="M32.6181 12.7674C35.8224 7.69216 35.4722 2.97478 35.3294 1.34554C34.8679 1.16758 34.4044 1.01627 33.9419 0.891602C34.8079 3.34117 34.9145 7.34481 32.5801 12.8168C32.5924 12.7997 32.6067 12.7854 32.6181 12.7674Z" fill="url(#paint21_linear)"/>
<path opacity="0.45" d="M41.1973 10.5937C41.4561 10.6698 41.7521 10.746 42.0699 10.8364C42.4896 8.31354 41.9158 6.02289 41.7806 5.53564C41.9158 6.513 41.5294 9.07962 41.1973 10.5937Z" fill="url(#paint22_linear)"/>
<path opacity="0.45" d="M44.4328 11.9899C44.6479 12.1079 44.882 12.2307 45.1294 12.3582C46.3771 6.56262 43.5449 3.80566 43.5449 3.80566C44.1197 4.73353 45.1865 8.09765 44.4328 11.9899Z" fill="url(#paint23_linear)"/>
<path opacity="0.45" d="M30.3285 0.00388544C29.7861 -0.00658282 29.2541 0.0114977 28.7383 0.0533707C29.511 1.82251 31.3953 7.65999 29.0647 14.7394C32.1043 7.41446 30.7434 1.37808 30.3285 0.00388544Z" fill="url(#paint24_linear)"/>
<path d="M46.7705 13.2226C46.7743 13.2264 46.7772 13.2302 46.781 13.234C46.78 13.2045 46.7781 13.176 46.7772 13.1465C46.7743 13.1836 46.7724 13.2093 46.7705 13.2226Z" fill="url(#paint25_linear)"/>
<path d="M19.4587 22.208C19.992 22.2613 20.3813 22.288 20.6267 22.288C20.872 22.288 21.04 22.2693 21.1307 22.232C21.2267 22.1947 21.2987 22.152 21.3467 22.104C21.3947 22.0507 21.4293 21.9733 21.4507 21.872C21.4773 21.744 21.4907 21.5867 21.4907 21.4C21.4907 21.2133 21.4453 21.0507 21.3547 20.912C21.264 20.7733 21.1787 20.6693 21.0987 20.6C21.024 20.5307 20.8853 20.408 20.6827 20.232C20.48 20.056 20.336 19.9307 20.2507 19.856C20.1707 19.776 20.056 19.6533 19.9067 19.488C19.6347 19.1893 19.4987 18.8773 19.4987 18.552C19.4987 17.9867 19.5573 17.64 19.6747 17.512C19.856 17.3253 20.0507 17.2187 20.2587 17.192C20.4667 17.16 20.688 17.144 20.9227 17.144L22.0107 17.376C21.968 17.68 21.9067 17.8587 21.8267 17.912C21.7893 17.944 21.7227 17.96 21.6267 17.96C21.536 17.96 21.416 17.944 21.2667 17.912L20.9627 17.856C20.648 17.856 20.456 17.92 20.3867 18.048C20.344 18.1173 20.3173 18.1813 20.3067 18.24C20.3013 18.2987 20.2987 18.3867 20.2987 18.504C20.2987 18.7227 20.568 19.0587 21.1067 19.512C21.3627 19.7147 21.5627 19.8853 21.7067 20.024C21.8507 20.1627 21.9867 20.3307 22.1147 20.528C22.2427 20.7253 22.3067 20.912 22.3067 21.088C22.3067 21.264 22.304 21.4 22.2987 21.496C22.2987 21.5867 22.288 21.7147 22.2667 21.88C22.2507 22.04 22.224 22.1653 22.1867 22.256C22.1493 22.3467 22.0933 22.4507 22.0187 22.568C21.944 22.6853 21.8533 22.7733 21.7467 22.832C21.4747 22.9813 21.1493 23.056 20.7707 23.056C20.5573 23.056 20.3093 23.032 20.0267 22.984C19.744 22.9307 19.5547 22.8987 19.4587 22.888V22.208ZM26.847 22.288C27.135 22.288 27.303 22.3093 27.351 22.352C27.4044 22.3947 27.431 22.5387 27.431 22.784V23H25.103V17.24H25.303C25.591 17.24 25.759 17.2613 25.807 17.304C25.8604 17.3413 25.887 17.4827 25.887 17.728V22.088L25.815 22.288H26.847ZM30.0718 22.512V17.24H30.2398C30.5331 17.24 30.7038 17.2613 30.7518 17.304C30.8051 17.3413 30.8318 17.4827 30.8318 17.728V23H30.6478C30.3598 23 30.1918 22.9813 30.1438 22.944C30.0958 22.9013 30.0718 22.7573 30.0718 22.512ZM34.5025 19.208C34.4972 19.3947 34.4945 19.6827 34.4945 20.072C34.4945 20.4613 34.4972 20.7493 34.5025 20.936C34.5132 21.1227 34.5372 21.336 34.5745 21.576C34.6119 21.8107 34.6759 21.976 34.7665 22.072C34.8572 22.168 34.9799 22.216 35.1345 22.216C35.2892 22.216 35.4999 22.2053 35.7665 22.184C36.0332 22.1573 36.2065 22.1413 36.2865 22.136V22.912C36.2385 22.9173 36.0785 22.944 35.8065 22.992C35.5399 23.0347 35.3265 23.056 35.1665 23.056C35.0065 23.056 34.8625 23.0373 34.7345 23C34.6065 22.968 34.4945 22.928 34.3985 22.88C34.3025 22.8267 34.2172 22.7493 34.1425 22.648C34.0679 22.5413 34.0065 22.4453 33.9585 22.36C33.9105 22.2747 33.8705 22.152 33.8385 21.992C33.8065 21.8267 33.7825 21.6907 33.7665 21.584C33.7505 21.4773 33.7372 21.32 33.7265 21.112C33.7159 20.8987 33.7105 20.7333 33.7105 20.616V19.536C33.7105 19.152 33.7239 18.872 33.7505 18.696C33.7772 18.5147 33.8065 18.344 33.8385 18.184C33.8705 18.024 33.9105 17.904 33.9585 17.824C34.0065 17.7387 34.0679 17.6453 34.1425 17.544C34.2172 17.4427 34.3025 17.368 34.3985 17.32C34.6332 17.2027 34.8892 17.144 35.1665 17.144L36.2785 17.4C36.2359 17.7093 36.1559 17.9013 36.0385 17.976C35.9745 18.0133 35.8839 18.032 35.7665 18.032C35.6492 18.032 35.5105 18.016 35.3505 17.984L35.1265 17.928C34.9772 17.928 34.8572 17.976 34.7665 18.072C34.6759 18.168 34.6119 18.336 34.5745 18.576C34.5372 18.8107 34.5132 19.0213 34.5025 19.208ZM41.5213 22.288V23H39.0093V17.24H41.4413V17.92H39.7213L39.7933 18.12V19.344L39.7213 19.544H41.3453V20.256H39.7293L39.7933 20.44V22.088L39.7213 22.288H41.5213Z" fill="#333333"/>
<defs>
<linearGradient id="paint0_linear" x1="16.6829" y1="1.46236" x2="16.5889" y2="9.19893" gradientUnits="userSpaceOnUse">
<stop offset="0.2242" stop-color="#0B0078"/>
<stop offset="0.6364" stop-color="#0006C0"/>
<stop offset="0.8061" stop-color="#0071BC"/>
</linearGradient>
<linearGradient id="paint1_linear" x1="16.6829" y1="5.2359" x2="16.6709" y2="7.99931" gradientUnits="userSpaceOnUse">
<stop offset="0.2242" stop-color="#0B0078"/>
<stop offset="0.6364" stop-color="#0006C0"/>
<stop offset="0.8061" stop-color="#0071BC"/>
</linearGradient>
<linearGradient id="paint2_linear" x1="49.6187" y1="10.1645" x2="21.7455" y2="25.1183" gradientUnits="userSpaceOnUse">
<stop offset="0.2242" stop-color="#0B0078"/>
<stop offset="0.6364" stop-color="#0006C0"/>
<stop offset="0.8061" stop-color="#0071BC"/>
</linearGradient>
<linearGradient id="paint3_linear" x1="41.0462" y1="8.95882" x2="16.4931" y2="6.76998" gradientUnits="userSpaceOnUse">
<stop offset="0.2242" stop-color="#0B0078"/>
<stop offset="0.6364" stop-color="#0006C0"/>
<stop offset="0.8061" stop-color="#0071BC"/>
</linearGradient>
<linearGradient id="paint4_linear" x1="41.0883" y1="8.48951" x2="16.5359" y2="6.30073" gradientUnits="userSpaceOnUse">
<stop offset="0.2242" stop-color="#0B0078"/>
<stop offset="0.6364" stop-color="#0006C0"/>
<stop offset="0.8061" stop-color="#0071BC"/>
</linearGradient>
<linearGradient id="paint5_linear" x1="40.6285" y1="13.6467" x2="16.0762" y2="11.4579" gradientUnits="userSpaceOnUse">
<stop offset="0.2242" stop-color="#0B0078"/>
<stop offset="0.6364" stop-color="#0006C0"/>
<stop offset="0.8061" stop-color="#0071BC"/>
</linearGradient>
<linearGradient id="paint6_linear" x1="41.4405" y1="4.79189" x2="16.0311" y2="2.52662" gradientUnits="userSpaceOnUse">
<stop offset="0.2242" stop-color="#0B0078"/>
<stop offset="0.6364" stop-color="#0006C0"/>
<stop offset="0.8061" stop-color="#0071BC"/>
</linearGradient>
<linearGradient id="paint7_linear" x1="41.1598" y1="7.68416" x2="16.6072" y2="5.49536" gradientUnits="userSpaceOnUse">
<stop offset="0.2242" stop-color="#0B0078"/>
<stop offset="0.6364" stop-color="#0006C0"/>
<stop offset="0.8061" stop-color="#0071BC"/>
</linearGradient>
<linearGradient id="paint8_linear" x1="41.1122" y1="8.22298" x2="16.5593" y2="6.03414" gradientUnits="userSpaceOnUse">
<stop offset="0.2242" stop-color="#0B0078"/>
<stop offset="0.6364" stop-color="#0006C0"/>
<stop offset="0.8061" stop-color="#0071BC"/>
</linearGradient>
<linearGradient id="paint9_linear" x1="41.4182" y1="4.78361" x2="16.865" y2="2.59475" gradientUnits="userSpaceOnUse">
<stop offset="0.2242" stop-color="#0B0078"/>
<stop offset="0.6364" stop-color="#0006C0"/>
<stop offset="0.8061" stop-color="#0071BC"/>
</linearGradient>
<linearGradient id="paint10_linear" x1="41.1308" y1="8.00979" x2="16.5788" y2="5.82103" gradientUnits="userSpaceOnUse">
<stop offset="0.2242" stop-color="#0B0078"/>
<stop offset="0.6364" stop-color="#0006C0"/>
<stop offset="0.8061" stop-color="#0071BC"/>
</linearGradient>
<linearGradient id="paint11_linear" x1="28.5848" y1="5.32545" x2="20.353" y2="7.70459" gradientUnits="userSpaceOnUse">
<stop stop-color="#0B0078"/>
<stop offset="0.3455" stop-color="#0006C0"/>
<stop offset="0.9515" stop-color="#0CB7FF"/>
</linearGradient>
<linearGradient id="paint12_linear" x1="17.2904" y1="9.02374" x2="53.0727" y2="6.16877" gradientUnits="userSpaceOnUse">
<stop stop-color="#812500"/>
<stop offset="0.1576" stop-color="#B30056"/>
<stop offset="0.297" stop-color="#FF5945"/>
<stop offset="0.4061" stop-color="#FFBD2D"/>
<stop offset="0.5333" stop-color="#F5FF43"/>
<stop offset="0.6182" stop-color="#82E82D"/>
<stop offset="0.7333" stop-color="#00C79F"/>
<stop offset="0.8303" stop-color="#00CCEC"/>
<stop offset="0.9576" stop-color="#69DBFF"/>
</linearGradient>
<linearGradient id="paint13_linear" x1="17.2406" y1="8.40089" x2="53.0235" y2="5.54586" gradientUnits="userSpaceOnUse">
<stop stop-color="#812500"/>
<stop offset="0.1576" stop-color="#B30056"/>
<stop offset="0.297" stop-color="#FF5945"/>
<stop offset="0.4061" stop-color="#FFBD2D"/>
<stop offset="0.5333" stop-color="#F5FF43"/>
<stop offset="0.6182" stop-color="#82E82D"/>
<stop offset="0.7333" stop-color="#00C79F"/>
<stop offset="0.8303" stop-color="#00CCEC"/>
<stop offset="0.9576" stop-color="#69DBFF"/>
</linearGradient>
<linearGradient id="paint14_linear" x1="17.2453" y1="8.46203" x2="53.0278" y2="5.60704" gradientUnits="userSpaceOnUse">
<stop stop-color="#812500"/>
<stop offset="0.1576" stop-color="#B30056"/>
<stop offset="0.297" stop-color="#FF5945"/>
<stop offset="0.4061" stop-color="#FFBD2D"/>
<stop offset="0.5333" stop-color="#F5FF43"/>
<stop offset="0.6182" stop-color="#82E82D"/>
<stop offset="0.7333" stop-color="#00C79F"/>
<stop offset="0.8303" stop-color="#00CCEC"/>
<stop offset="0.9576" stop-color="#69DBFF"/>
</linearGradient>
<linearGradient id="paint15_linear" x1="27.5551" y1="9.74065" x2="25.0217" y2="12.1819" gradientUnits="userSpaceOnUse">
<stop stop-color="white"/>
<stop offset="0.1109" stop-color="#F7F7F7"/>
<stop offset="0.2793" stop-color="#E2E2E2"/>
<stop offset="0.4842" stop-color="#C0C0C0"/>
<stop offset="0.7178" stop-color="#909090"/>
<stop offset="0.9727" stop-color="#545454"/>
<stop offset="1" stop-color="#4D4D4D"/>
</linearGradient>
<linearGradient id="paint16_linear" x1="17.3941" y1="10.3278" x2="53.1767" y2="7.47279" gradientUnits="userSpaceOnUse">
<stop stop-color="#812500"/>
<stop offset="0.1576" stop-color="#B30056"/>
<stop offset="0.297" stop-color="#FF5945"/>
<stop offset="0.4061" stop-color="#FFBD2D"/>
<stop offset="0.5333" stop-color="#F5FF43"/>
<stop offset="0.6182" stop-color="#82E82D"/>
<stop offset="0.7333" stop-color="#00C79F"/>
<stop offset="0.8303" stop-color="#00CCEC"/>
<stop offset="0.9576" stop-color="#69DBFF"/>
</linearGradient>
<linearGradient id="paint17_linear" x1="17.3769" y1="10.1096" x2="53.1592" y2="7.2546" gradientUnits="userSpaceOnUse">
<stop stop-color="#812500"/>
<stop offset="0.1576" stop-color="#B30056"/>
<stop offset="0.297" stop-color="#FF5945"/>
<stop offset="0.4061" stop-color="#FFBD2D"/>
<stop offset="0.5333" stop-color="#F5FF43"/>
<stop offset="0.6182" stop-color="#82E82D"/>
<stop offset="0.7333" stop-color="#00C79F"/>
<stop offset="0.8303" stop-color="#00CCEC"/>
<stop offset="0.9576" stop-color="#69DBFF"/>
</linearGradient>
<linearGradient id="paint18_linear" x1="17.3586" y1="9.87783" x2="53.1408" y2="7.02287" gradientUnits="userSpaceOnUse">
<stop stop-color="#812500"/>
<stop offset="0.1576" stop-color="#B30056"/>
<stop offset="0.297" stop-color="#FF5945"/>
<stop offset="0.4061" stop-color="#FFBD2D"/>
<stop offset="0.5333" stop-color="#F5FF43"/>
<stop offset="0.6182" stop-color="#82E82D"/>
<stop offset="0.7333" stop-color="#00C79F"/>
<stop offset="0.8303" stop-color="#00CCEC"/>
<stop offset="0.9576" stop-color="#69DBFF"/>
</linearGradient>
<linearGradient id="paint19_linear" x1="21.6211" y1="6.21556" x2="25.4661" y2="6.21556" gradientUnits="userSpaceOnUse">
<stop stop-color="#B3B3B3"/>
<stop offset="0.9212" stop-color="white"/>
</linearGradient>
<linearGradient id="paint20_linear" x1="40.4172" y1="4.89364" x2="35.1831" y2="9.93744" gradientUnits="userSpaceOnUse">
<stop stop-color="white"/>
<stop offset="0.1109" stop-color="#F7F7F7"/>
<stop offset="0.2793" stop-color="#E2E2E2"/>
<stop offset="0.4842" stop-color="#C0C0C0"/>
<stop offset="0.7178" stop-color="#909090"/>
<stop offset="0.9727" stop-color="#545454"/>
<stop offset="1" stop-color="#4D4D4D"/>
</linearGradient>
<linearGradient id="paint21_linear" x1="36.9811" y1="3.26767" x2="32.0953" y2="7.97585" gradientUnits="userSpaceOnUse">
<stop stop-color="white"/>
<stop offset="0.1109" stop-color="#F7F7F7"/>
<stop offset="0.2793" stop-color="#E2E2E2"/>
<stop offset="0.4842" stop-color="#C0C0C0"/>
<stop offset="0.7178" stop-color="#909090"/>
<stop offset="0.9727" stop-color="#545454"/>
<stop offset="1" stop-color="#4D4D4D"/>
</linearGradient>
<linearGradient id="paint22_linear" x1="43.1343" y1="7.02218" x2="41.2024" y2="8.88375" gradientUnits="userSpaceOnUse">
<stop stop-color="white"/>
<stop offset="0.1109" stop-color="#F7F7F7"/>
<stop offset="0.2793" stop-color="#E2E2E2"/>
<stop offset="0.4842" stop-color="#C0C0C0"/>
<stop offset="0.7178" stop-color="#909090"/>
<stop offset="0.9727" stop-color="#545454"/>
<stop offset="1" stop-color="#4D4D4D"/>
</linearGradient>
<linearGradient id="paint23_linear" x1="44.2494" y1="3.60506" x2="45.1059" y2="13.3437" gradientUnits="userSpaceOnUse">
<stop stop-color="white"/>
<stop offset="0.1109" stop-color="#F7F7F7"/>
<stop offset="0.2793" stop-color="#E2E2E2"/>
<stop offset="0.4842" stop-color="#C0C0C0"/>
<stop offset="0.7178" stop-color="#909090"/>
<stop offset="0.9727" stop-color="#545454"/>
<stop offset="1" stop-color="#4D4D4D"/>
</linearGradient>
<linearGradient id="paint24_linear" x1="30.9093" y1="-5.41016" x2="29.2979" y2="8.11618" gradientUnits="userSpaceOnUse">
<stop stop-color="white"/>
<stop offset="0.1109" stop-color="#F7F7F7"/>
<stop offset="0.2793" stop-color="#E2E2E2"/>
<stop offset="0.4842" stop-color="#C0C0C0"/>
<stop offset="0.7178" stop-color="#909090"/>
<stop offset="0.9727" stop-color="#545454"/>
<stop offset="1" stop-color="#4D4D4D"/>
</linearGradient>
<linearGradient id="paint25_linear" x1="46.7666" y1="13.1906" x2="46.7812" y2="13.1906" gradientUnits="userSpaceOnUse">
<stop offset="0.2242" stop-color="#0B0078"/>
<stop offset="0.6364" stop-color="#0006C0"/>
<stop offset="0.8061" stop-color="#0071BC"/>
</linearGradient>
</defs>
</svg>
