<svg width="51" height="51" viewBox="0 0 51 51" fill="none" xmlns="http://www.w3.org/2000/svg">
<path d="M41.288 18.779H38.0772L39.0446 7.67158C39.0464 7.65146 39.0467 7.63164 39.0468 7.61182C39.0468 7.61012 39.047 7.60853 39.047 7.60684C39.047 7.60654 39.047 7.60634 39.047 7.60604C39.047 7.30372 38.8646 7.03727 38.5966 6.92142C38.5943 6.92043 38.5921 6.91923 38.5898 6.91824C38.5732 6.91126 38.556 6.90529 38.5386 6.89951C38.5321 6.89742 38.526 6.89483 38.5195 6.89283C38.5054 6.88855 38.4908 6.88516 38.4764 6.88168C38.4662 6.87929 38.4564 6.8764 38.4462 6.87441C38.4335 6.87192 38.4204 6.87032 38.4074 6.86843C38.3953 6.86664 38.3833 6.86455 38.3711 6.86345C38.369 6.86325 38.3671 6.86285 38.365 6.86265C38.3519 6.86146 38.3389 6.86166 38.3259 6.86116C38.3171 6.86086 38.3085 6.85986 38.2998 6.85986H38.2904C38.2896 6.85986 38.2888 6.85986 38.2881 6.85986H23.0109C22.5985 6.85986 22.2638 7.19455 22.2638 7.60694C22.2638 8.01832 22.5985 8.35401 23.0109 8.35401H37.4854L35.9987 25.4246C35.9985 25.4259 35.9985 25.4272 35.9983 25.4285L35.6231 29.7357H9.66394L10.0981 25.2535H15.0409C15.4536 25.2535 15.7879 24.919 15.7879 24.5064C15.7879 24.0938 15.4536 23.7594 15.0409 23.7594H10.243L11.1598 14.2969H19.0265C19.4391 14.2969 19.7735 13.9624 19.7735 13.5499C19.7735 13.1373 19.4391 12.8028 19.0265 12.8028H11.3046L11.7357 8.35401H20.0226C20.4339 8.35401 20.7696 8.01832 20.7696 7.60694C20.7696 7.19455 20.4339 6.85986 20.0226 6.85986H11.0577C11.0573 6.85986 11.057 6.85996 11.0566 6.85996C10.7057 6.85986 10.4013 7.1069 10.3276 7.44935C10.3271 7.45184 10.3262 7.45424 10.3257 7.45673C10.322 7.47535 10.3195 7.49438 10.317 7.5135C10.3163 7.51958 10.315 7.52536 10.3144 7.53143C10.3143 7.53263 10.314 7.53372 10.3139 7.53492L9.80349 12.8028H0.747073C0.33439 12.8028 0 13.1373 0 13.5499C0 13.9624 0.33439 14.2969 0.747073 14.2969H9.65866L8.74185 23.7594H6.0764C5.66371 23.7594 5.32932 24.0938 5.32932 24.5064C5.32932 24.919 5.66371 25.2535 6.0764 25.2535H8.59712L8.09788 30.4054C8.09778 30.4062 8.09778 30.407 8.09768 30.4077L7.3258 38.3744C7.3257 38.3753 7.3256 38.3763 7.3255 38.3771L7.3252 38.38C7.32421 38.3903 7.32431 38.4005 7.32371 38.4109C7.32301 38.4246 7.32162 38.438 7.32162 38.452C7.32162 38.4526 7.32172 38.4532 7.32172 38.4539C7.32172 38.4731 7.32311 38.492 7.32451 38.511C7.3251 38.517 7.3249 38.5232 7.3256 38.5292C7.32759 38.5485 7.33088 38.5675 7.33437 38.5865C7.33536 38.592 7.33586 38.5977 7.33696 38.6032C7.33985 38.6175 7.34393 38.6314 7.34771 38.6454C7.3503 38.6553 7.3524 38.6654 7.35538 38.675C7.35628 38.6777 7.35748 38.6803 7.35827 38.6831C7.39443 38.7943 7.45579 38.8941 7.53588 38.9755C7.53737 38.977 7.53857 38.9787 7.54006 38.9801C7.54803 38.9881 7.5567 38.9953 7.56506 39.0028C7.61656 39.05 7.67473 39.0901 7.73838 39.1215C7.75163 39.128 7.76468 39.1349 7.77823 39.1406C7.78231 39.1424 7.78669 39.1436 7.79088 39.1452C7.8096 39.1526 7.82843 39.1598 7.84786 39.1659C7.84965 39.1664 7.85134 39.1667 7.85313 39.1673C7.87525 39.1739 7.89756 39.1796 7.92037 39.1843C7.92336 39.1849 7.92645 39.1851 7.92934 39.1857C7.95105 39.1898 7.97287 39.1933 7.99508 39.1955C7.99558 39.1955 7.99598 39.1956 7.99647 39.1957C8.02098 39.1981 8.04528 39.1993 8.06939 39.1993C8.06969 39.1993 8.07009 39.1992 8.07048 39.1992H11.3963C11.7635 41.9836 14.1507 44.1401 17.0339 44.1401C19.9169 44.1401 22.304 41.9836 22.6713 39.1992H34.6542C35.0216 41.9836 37.4086 44.1401 40.2918 44.1401C43.1748 44.1401 45.5621 41.9836 45.9295 39.1992H49.256C49.2565 39.1992 49.2571 39.1993 49.2576 39.1993C49.2825 39.1993 49.307 39.1978 49.3313 39.1954C49.3357 39.195 49.3399 39.1941 49.3443 39.1936C49.3637 39.1913 49.383 39.1886 49.402 39.1848C49.4101 39.1832 49.418 39.181 49.4261 39.1791C49.4407 39.1758 49.4555 39.1722 49.4698 39.1679C49.4796 39.165 49.489 39.1616 49.4986 39.1583C49.5108 39.1541 49.5231 39.1498 49.5351 39.1449C49.5455 39.1408 49.5554 39.1363 49.5654 39.1318C49.5764 39.1268 49.5873 39.1216 49.598 39.1161C49.6082 39.1109 49.6179 39.1055 49.6277 39.1C49.6379 39.094 49.6481 39.0878 49.6582 39.0814C49.6675 39.0755 49.6769 39.0694 49.6859 39.063C49.696 39.0559 49.7057 39.0485 49.7155 39.0409C49.7237 39.0344 49.732 39.028 49.7399 39.0213C49.7502 39.0126 49.7599 39.0035 49.7696 38.9943C49.7764 38.9878 49.7835 38.9814 49.79 38.9746C49.8004 38.9641 49.8103 38.9529 49.8201 38.9417C49.8254 38.9356 49.8309 38.9297 49.836 38.9235C49.8469 38.91 49.8569 38.8961 49.8668 38.882C49.8702 38.8771 49.874 38.8725 49.8773 38.8676C49.8895 38.8493 49.9009 38.8306 49.9115 38.8113C49.9123 38.8101 49.9131 38.809 49.9136 38.8077C49.9248 38.787 49.9352 38.7658 49.9444 38.7438C49.947 38.7376 49.949 38.7311 49.9515 38.7248C49.9576 38.7094 49.9636 38.6939 49.9686 38.6779C49.9719 38.6675 49.9743 38.6569 49.9772 38.6464C49.9805 38.634 49.984 38.6216 49.9868 38.609C49.9893 38.5977 49.9909 38.5862 49.9927 38.5747C49.9944 38.5647 49.9966 38.5548 49.9979 38.5445C50.0296 38.2907 50.6146 33.5972 50.8759 30.5623C50.8762 30.5594 50.8763 30.5564 50.8766 30.5535C50.9518 29.6787 51 28.9419 51 28.4909C51 23.1358 46.6433 18.779 41.288 18.779ZM37.947 20.2733H41.0034L40.613 24.7554H37.5567L37.947 20.2733ZM17.0341 42.6459C14.7214 42.6459 12.84 40.7644 12.84 38.4519C12.84 36.1394 14.7215 34.2579 17.0341 34.2579C19.3466 34.2579 21.228 36.1394 21.228 38.4519C21.228 40.7644 19.3466 42.6459 17.0341 42.6459ZM40.2918 42.6459C37.9792 42.6459 36.0979 40.7644 36.0979 38.4519C36.0979 36.1394 37.9793 34.2579 40.2918 34.2579C42.6044 34.2579 44.4858 36.1394 44.4858 38.4519C44.4858 40.7644 42.6044 42.6459 40.2918 42.6459ZM48.5959 37.7045H45.9297C45.5625 34.9199 43.1753 32.7633 40.292 32.7633C37.4088 32.7633 35.0216 34.92 34.6544 37.7045H22.6716C22.3044 34.9199 19.9173 32.7633 17.0341 32.7633C14.1509 32.7633 11.7635 34.92 11.3964 37.7045H8.89177L9.51921 31.2295H36.3078V31.2299C36.3082 31.2299 36.3085 31.2299 36.3089 31.2299C36.3339 31.2299 36.3587 31.2285 36.3832 31.226C36.3877 31.2256 36.3922 31.2246 36.3968 31.224C36.4163 31.2217 36.4358 31.2189 36.4549 31.2151C36.4632 31.2135 36.4712 31.2112 36.4794 31.2092C36.4943 31.2056 36.5093 31.2021 36.5238 31.1977C36.5338 31.1947 36.5432 31.1911 36.5529 31.1878C36.5655 31.1834 36.578 31.1791 36.5902 31.1741C36.6006 31.1698 36.6107 31.165 36.6208 31.1603C36.6319 31.1552 36.6429 31.1501 36.6536 31.1445C36.6638 31.1391 36.6737 31.1334 36.6838 31.1276C36.694 31.1216 36.7042 31.1155 36.7142 31.1092C36.7238 31.1029 36.733 31.0963 36.7423 31.0897C36.7521 31.0828 36.7617 31.0756 36.7712 31.0681C36.7798 31.0612 36.7883 31.0542 36.7966 31.0469C36.8061 31.0387 36.8154 31.0304 36.8243 31.0217C36.8319 31.0144 36.8395 31.007 36.8468 30.9993C36.8558 30.9899 36.8645 30.9803 36.873 30.9704C36.8797 30.9626 36.8863 30.9549 36.8927 30.9469C36.9009 30.9364 36.9088 30.9257 36.9166 30.9148C36.9225 30.9067 36.9281 30.8985 36.9337 30.8901C36.941 30.8789 36.948 30.8673 36.9546 30.8556C36.9597 30.8468 36.9649 30.838 36.9695 30.8291C36.9757 30.8173 36.9811 30.8054 36.9868 30.7933C36.9912 30.7836 36.9957 30.7742 36.9997 30.7642C37.0045 30.7525 37.0086 30.7404 37.0129 30.7284C37.0166 30.7177 37.0205 30.707 37.0238 30.6961C37.027 30.6845 37.0297 30.6727 37.0327 30.6609C37.0356 30.6491 37.0388 30.6373 37.0411 30.6253C37.0434 30.6135 37.0448 30.6015 37.0466 30.5896C37.0484 30.5772 37.0504 30.5651 37.0516 30.5525C37.0518 30.5507 37.0522 30.5491 37.0523 30.5473L37.4268 26.2491H41.2879C43.5768 26.2491 44.6091 27.4351 45.702 28.6907C46.6037 29.7268 47.6105 30.8827 49.3218 31.1647C49.1044 33.4627 48.7531 36.4128 48.5959 37.7045ZM49.4495 29.6676C48.3393 29.4413 47.6563 28.6609 46.8288 27.7102C45.794 26.5213 44.5306 25.0705 42.1088 24.8002L42.4953 20.3628C46.4562 20.9486 49.5059 24.37 49.5059 28.4911C49.5059 28.7711 49.4849 29.1779 49.4495 29.6676Z" fill="white"/>
<path d="M17.0339 35.7124C15.5236 35.7124 14.2947 36.9412 14.2947 38.4517C14.2947 39.9622 15.5236 41.1909 17.0339 41.1909C18.5443 41.1909 19.7732 39.9622 19.7732 38.4517C19.7732 36.9413 18.5443 35.7124 17.0339 35.7124ZM17.0339 39.6968C16.3473 39.6968 15.7888 39.1383 15.7888 38.4517C15.7888 37.7651 16.3473 37.2065 17.0339 37.2065C17.7206 37.2065 18.2791 37.7651 18.2791 38.4517C18.2791 39.1383 17.7205 39.6968 17.0339 39.6968Z" fill="white"/>
<path d="M40.2918 35.7124C38.7814 35.7124 37.5525 36.9412 37.5525 38.4517C37.5525 39.9622 38.7814 41.1909 40.2918 41.1909C41.8021 41.1909 43.031 39.9622 43.031 38.4517C43.031 36.9413 41.8021 35.7124 40.2918 35.7124ZM40.2918 39.6968C39.6051 39.6968 39.0466 39.1383 39.0466 38.4517C39.0466 37.7651 39.6051 37.2065 40.2918 37.2065C40.9784 37.2065 41.5369 37.7651 41.5369 38.4517C41.5369 39.1383 40.9784 39.6968 40.2918 39.6968Z" fill="white"/>
<path d="M7.07222 18.7791H3.41992C3.00724 18.7791 2.67285 19.1135 2.67285 19.5261C2.67285 19.9387 3.00724 20.2732 3.41992 20.2732H7.07222C7.4849 20.2732 7.81929 19.9387 7.81929 19.5261C7.81929 19.1135 7.4849 18.7791 7.07222 18.7791Z" fill="white"/>
</svg>
