<?xml version="1.0" encoding="UTF-8"?>
<!DOCTYPE svg PUBLIC "-//W3C//DTD SVG 1.1//EN" "http://www.w3.org/Graphics/SVG/1.1/DTD/svg11.dtd">
<!-- Creator: CorelDRAW 2020 (64-Bit) -->
<svg xmlns="http://www.w3.org/2000/svg" xml:space="preserve" width="210mm" height="297mm" version="1.1" style="shape-rendering:geometricPrecision; text-rendering:geometricPrecision; image-rendering:optimizeQuality; fill-rule:evenodd; clip-rule:evenodd"
viewBox="0 0 21000 29700"
 xmlns:xlink="http://www.w3.org/1999/xlink"
 xmlns:xodm="http://www.corel.com/coreldraw/odm/2003">
 <defs>
  <style type="text/css">
   <![CDATA[
    .fil23 {fill:black;fill-rule:nonzero}
    .fil0 {fill:#19191B;fill-rule:nonzero}
    .fil21 {fill:white;fill-rule:nonzero}
    .fil13 {fill:#666666;fill-rule:nonzero;fill-opacity:0.368627}
    .fil14 {fill:url(#id0);fill-rule:nonzero}
    .fil7 {fill:url(#id1);fill-rule:nonzero}
    .fil8 {fill:url(#id2);fill-rule:nonzero}
    .fil10 {fill:url(#id3);fill-rule:nonzero}
    .fil16 {fill:url(#id4);fill-rule:nonzero}
    .fil9 {fill:url(#id5);fill-rule:nonzero}
    .fil15 {fill:url(#id6);fill-rule:nonzero}
    .fil20 {fill:url(#id7);fill-rule:nonzero}
    .fil12 {fill:url(#id8);fill-rule:nonzero}
    .fil3 {fill:url(#id9);fill-rule:nonzero}
    .fil18 {fill:url(#id10);fill-rule:nonzero}
    .fil6 {fill:url(#id11);fill-rule:nonzero}
    .fil5 {fill:url(#id12);fill-rule:nonzero}
    .fil1 {fill:url(#id13);fill-rule:nonzero}
    .fil2 {fill:url(#id14);fill-rule:nonzero}
    .fil19 {fill:url(#id15);fill-rule:nonzero}
    .fil29 {fill:url(#id16);fill-rule:nonzero}
    .fil4 {fill:url(#id17);fill-rule:nonzero}
    .fil22 {fill:url(#id18);fill-rule:nonzero}
    .fil11 {fill:url(#id19);fill-rule:nonzero}
    .fil28 {fill:url(#id20);fill-rule:nonzero;fill-opacity:0.450980}
    .fil25 {fill:url(#id21);fill-rule:nonzero;fill-opacity:0.450980}
    .fil27 {fill:url(#id22);fill-rule:nonzero;fill-opacity:0.450980}
    .fil24 {fill:url(#id23);fill-rule:nonzero;fill-opacity:0.450980}
    .fil17 {fill:url(#id24);fill-rule:nonzero;fill-opacity:0.450980}
    .fil26 {fill:url(#id25);fill-rule:nonzero;fill-opacity:0.450980}
   ]]>
  </style>
  <linearGradient id="id0" gradientUnits="userSpaceOnUse" x1="8711.22" y1="11412.95" x2="11040.6" y2="11227.75">
   <stop offset="0" style="stop-opacity:1; stop-color:#812500"/>
   <stop offset="0.160784" style="stop-opacity:1; stop-color:#B30056"/>
   <stop offset="0.301961" style="stop-opacity:1; stop-color:#FF5945"/>
   <stop offset="0.411765" style="stop-opacity:1; stop-color:#FFBD2D"/>
   <stop offset="0.529412" style="stop-opacity:1; stop-color:#F5FF43"/>
   <stop offset="0.619608" style="stop-opacity:1; stop-color:#82E82D"/>
   <stop offset="0.729412" style="stop-opacity:1; stop-color:#00C79F"/>
   <stop offset="0.831373" style="stop-opacity:1; stop-color:#00CCEC"/>
   <stop offset="0.960784" style="stop-opacity:1; stop-color:#69DBFF"/>
   <stop offset="1" style="stop-opacity:1; stop-color:#69DBFF"/>
  </linearGradient>
  <linearGradient id="id1" gradientUnits="userSpaceOnUse" x1="10324.22" y1="11124.89" x2="8996.51" y2="10996.42">
   <stop offset="0" style="stop-opacity:1; stop-color:#0B0078"/>
   <stop offset="0.219608" style="stop-opacity:1; stop-color:#0B0078"/>
   <stop offset="0.639216" style="stop-opacity:1; stop-color:#0006C0"/>
   <stop offset="0.811765" style="stop-opacity:1; stop-color:#0071BC"/>
   <stop offset="1" style="stop-opacity:1; stop-color:#0071BC"/>
  </linearGradient>
  <linearGradient id="id2" gradientUnits="userSpaceOnUse" xlink:href="#id1" x1="10328.61" y1="11333.58" x2="8608.83" y2="11174.83">
  </linearGradient>
  <linearGradient id="id3" gradientUnits="userSpaceOnUse" xlink:href="#id1" x1="10328.61" y1="11121.92" x2="8608.83" y2="10963.17">
  </linearGradient>
  <linearGradient id="id4" gradientUnits="userSpaceOnUse" xlink:href="#id0" x1="8749.52" y1="11386.49" x2="10678.35" y2="11174.83">
  </linearGradient>
  <linearGradient id="id5" gradientUnits="userSpaceOnUse" xlink:href="#id1" x1="10328.61" y1="11360.03" x2="8582.37" y2="11227.75">
  </linearGradient>
  <linearGradient id="id6" gradientUnits="userSpaceOnUse" xlink:href="#id0" x1="8821.67" y1="11386.91" x2="10768.83" y2="11175.78">
  </linearGradient>
  <linearGradient id="id7" gradientUnits="userSpaceOnUse" xlink:href="#id0" x1="8776.46" y1="11492.33" x2="11117.9" y2="11280.67">
  </linearGradient>
  <linearGradient id="id8" gradientUnits="userSpaceOnUse" x1="9455.49" y1="11148.38" x2="8873.41" y2="11333.58">
   <stop offset="0" style="stop-opacity:1; stop-color:#0B0078"/>
   <stop offset="0.34902" style="stop-opacity:1; stop-color:#0006C0"/>
   <stop offset="0.94902" style="stop-opacity:1; stop-color:#0CB7FF"/>
   <stop offset="1" style="stop-opacity:1; stop-color:#0CB7FF"/>
  </linearGradient>
  <linearGradient id="id9" gradientUnits="userSpaceOnUse" xlink:href="#id1" x1="10898.76" y1="11492.33" x2="8950.46" y2="12524.2">
  </linearGradient>
  <linearGradient id="id10" gradientUnits="userSpaceOnUse" xlink:href="#id0" x1="8893.8" y1="11518.78" x2="11090.39" y2="11307.13">
  </linearGradient>
  <linearGradient id="id11" gradientUnits="userSpaceOnUse" xlink:href="#id1" x1="10275.69" y1="11756.91" x2="8555.91" y2="11598.16">
  </linearGradient>
  <linearGradient id="id12" gradientUnits="userSpaceOnUse" xlink:href="#id1" x1="10328.61" y1="11386.49" x2="8582.37" y2="11227.75">
  </linearGradient>
  <linearGradient id="id13" gradientUnits="userSpaceOnUse" xlink:href="#id1" x1="8608.83" y1="10857.33" x2="8608.83" y2="11386.49">
  </linearGradient>
  <linearGradient id="id14" gradientUnits="userSpaceOnUse" xlink:href="#id1" x1="8608.83" y1="11121.92" x2="8608.83" y2="11307.13">
  </linearGradient>
  <linearGradient id="id15" gradientUnits="userSpaceOnUse" xlink:href="#id0" x1="8661.74" y1="11492.33" x2="11175.28" y2="11307.13">
  </linearGradient>
  <linearGradient id="id16" gradientUnits="userSpaceOnUse" xlink:href="#id1" x1="10725.49" y1="11730.45" x2="10725.49" y2="11730.45">
  </linearGradient>
  <linearGradient id="id17" gradientUnits="userSpaceOnUse" xlink:href="#id1" x1="10291.45" y1="11412.95" x2="8590" y2="11254.21">
  </linearGradient>
  <linearGradient id="id18" gradientUnits="userSpaceOnUse" x1="8952.79" y1="11227.75" x2="9217.36" y2="11227.75">
   <stop offset="0" style="stop-opacity:1; stop-color:#B3B3B3"/>
   <stop offset="0.921569" style="stop-opacity:1; stop-color:white"/>
   <stop offset="1" style="stop-opacity:1; stop-color:white"/>
  </linearGradient>
  <linearGradient id="id19" gradientUnits="userSpaceOnUse" xlink:href="#id1" x1="10335.5" y1="11360.03" x2="8689.47" y2="11201.29">
  </linearGradient>
  <linearGradient id="id20" gradientUnits="userSpaceOnUse" x1="9564.09" y1="10434.72" x2="9475.5" y2="11360.28">
   <stop offset="0" style="stop-opacity:1; stop-color:white"/>
   <stop offset="0.109804" style="stop-opacity:1; stop-color:#F7F7F7"/>
   <stop offset="0.278431" style="stop-opacity:1; stop-color:#E2E2E2"/>
   <stop offset="0.478431" style="stop-opacity:1; stop-color:silver"/>
   <stop offset="0.721569" style="stop-opacity:1; stop-color:#909090"/>
   <stop offset="0.968627" style="stop-opacity:1; stop-color:#545454"/>
   <stop offset="1" style="stop-opacity:1; stop-color:#4D4D4D"/>
  </linearGradient>
  <linearGradient id="id21" gradientUnits="userSpaceOnUse" xlink:href="#id20" x1="9999.38" y1="11016.08" x2="9698.44" y2="11360.03">
  </linearGradient>
  <linearGradient id="id22" gradientUnits="userSpaceOnUse" xlink:href="#id20" x1="10527.73" y1="11042.54" x2="10563.27" y2="11730.45">
  </linearGradient>
  <linearGradient id="id23" gradientUnits="userSpaceOnUse" xlink:href="#id20" x1="10275.69" y1="11121.92" x2="9905.28" y2="11492.33">
  </linearGradient>
  <linearGradient id="id24" gradientUnits="userSpaceOnUse" xlink:href="#id20" x1="9370.33" y1="11465.87" x2="9189.78" y2="11651.08">
  </linearGradient>
  <linearGradient id="id25" gradientUnits="userSpaceOnUse" xlink:href="#id20" x1="10435.2" y1="11280.67" x2="10330.4" y2="11412.95">
  </linearGradient>
 </defs>
 <g id="Слой_x0020_1">
  <metadata id="CorelCorpID_0Corel-Layer"/>
  <path id="Home.svg" class="fil0" d="M8595.25 12364.3c38.81,3.88 67.13,5.82 84.98,5.82 17.85,0 30.08,-1.36 36.68,-4.07 6.98,-2.72 12.22,-5.82 15.71,-9.32 3.49,-3.88 6.02,-9.5 7.57,-16.88 1.94,-9.31 2.91,-20.76 2.91,-34.34 0,-13.58 -3.3,-25.42 -9.9,-35.51 -6.59,-10.09 -12.8,-17.65 -18.62,-22.7 -5.44,-5.04 -15.53,-13.97 -30.27,-26.77 -14.75,-12.81 -25.22,-21.93 -31.43,-27.36 -5.82,-5.82 -14.17,-14.75 -25.03,-26.78 -19.79,-21.73 -29.69,-44.43 -29.69,-68.1 0,-41.14 4.27,-66.36 12.81,-75.67 13.19,-13.58 27.35,-21.35 42.49,-23.29 15.13,-2.32 31.24,-3.49 48.31,-3.49l79.16 16.88c-3.1,22.12 -7.56,35.12 -13.38,39 -2.72,2.33 -7.57,3.49 -14.56,3.49 -6.59,0 -15.32,-1.16 -26.19,-3.49l-22.12 -4.07c-22.89,0 -36.86,4.65 -41.91,13.97 -3.1,5.04 -5.04,9.7 -5.82,13.97 -0.39,4.27 -0.58,10.67 -0.58,19.21 0,15.91 19.6,40.35 58.79,73.34 18.63,14.74 33.18,27.16 43.66,37.25 10.47,10.09 20.37,22.31 29.68,36.67 9.31,14.36 13.97,27.94 13.97,40.75 0,12.8 -0.19,22.7 -0.58,29.69 0,6.59 -0.78,15.9 -2.33,27.94 -1.16,11.64 -3.1,20.76 -5.82,27.35 -2.72,6.6 -6.79,14.17 -12.22,22.7 -5.44,8.54 -12.03,14.95 -19.79,19.21 -19.8,10.87 -43.47,16.3 -71.02,16.3 -15.52,0 -33.57,-1.74 -54.13,-5.24 -20.57,-3.88 -34.35,-6.21 -41.33,-6.98l0 -49.48zm656.64 5.82c20.96,0 33.18,1.55 36.67,4.66 3.89,3.1 5.82,13.58 5.82,31.43l0 15.72 -169.38 0 0 -419.1 14.55 0c20.96,0 33.18,1.55 36.67,4.65 3.88,2.72 5.82,13 5.82,30.85l0 317.24 -5.24 14.55 75.09 0zm353.7 16.3l0 -383.59 12.22 0c21.35,0 33.77,1.55 37.26,4.65 3.88,2.72 5.82,13 5.82,30.85l0 383.6 -13.39 0c-20.95,0 -33.18,-1.36 -36.67,-4.08 -3.49,-3.1 -5.24,-13.58 -5.24,-31.43zm441.45 -240.4c-0.39,13.58 -0.58,34.54 -0.58,62.86 0,28.33 0.19,49.29 0.58,62.87 0.77,13.58 2.52,29.1 5.24,46.57 2.71,17.07 7.37,29.1 13.97,36.09 6.59,6.98 15.52,10.47 26.77,10.47 11.25,0 26.58,-0.77 45.99,-2.33 19.4,-1.94 32.01,-3.1 37.83,-3.49l0 56.46c-3.49,0.39 -15.13,2.33 -34.92,5.82 -19.41,3.11 -34.93,4.66 -46.57,4.66 -11.64,0 -22.12,-1.36 -31.43,-4.07 -9.32,-2.33 -17.46,-5.24 -24.45,-8.73 -6.98,-3.89 -13.19,-9.51 -18.63,-16.88 -5.43,-7.77 -9.89,-14.75 -13.38,-20.96 -3.5,-6.21 -6.41,-15.13 -8.74,-26.78 -2.32,-12.03 -4.07,-21.92 -5.23,-29.68 -1.17,-7.76 -2.14,-19.21 -2.91,-34.34 -0.78,-15.53 -1.17,-27.56 -1.17,-36.09l0 -78.59c0,-27.94 0.97,-48.31 2.91,-61.11 1.94,-13.2 4.08,-25.62 6.4,-37.26 2.33,-11.64 5.24,-20.37 8.74,-26.19 3.49,-6.21 7.95,-13 13.38,-20.37 5.44,-7.38 11.65,-12.81 18.63,-16.3 17.07,-8.54 35.7,-12.81 55.88,-12.81l80.91 18.63c-3.11,22.51 -8.93,36.48 -17.46,41.91 -4.66,2.71 -11.26,4.07 -19.79,4.07 -8.54,0 -18.63,-1.16 -30.27,-3.49l-16.3 -4.07c-10.87,0 -19.6,3.49 -26.19,10.47 -6.6,6.99 -11.26,19.21 -13.97,36.67 -2.72,17.08 -4.47,32.41 -5.24,45.99zm629.75 224.1l0 51.81 -182.78 0 0 -419.1 176.95 0 0 49.47 -125.14 0 5.24 14.56 0 89.05 -5.24 14.56 118.16 0 0 51.8 -117.58 0 4.66 13.39 0 119.91 -5.24 14.55 130.97 0z"/>
  <g id="graphics.svg">
   <polygon class="fil1" points="7444.66,11275.75 8837.82,11194.73 8837.82,11356.76 "/>
   <polygon class="fil2" points="7444.66,11275.75 8837.82,11246.82 8837.82,11304.68 "/>
   <path class="fil3" d="M9298.6 11440.72c-85.79,-279.76 -232.73,-388.21 -298.81,-445.61 -177.27,124.62 -287.92,269.61 -315.65,324.07l-40.09 26.73c0,0 96.89,0 174.86,63.88 48.45,58.46 45.64,0 45.64,0 0,0 -294,-10.43 -387.55,73.09 337.44,-6.68 489.38,244.29 788.52,321.27 15.17,-72.97 37.76,-210.01 33.08,-363.43z"/>
   <path class="fil4" d="M9298.07 10860.87c134.84,166.31 160.76,389.55 148.74,584.33 33.74,143.12 46.37,286.32 38.62,394.09 62.74,-190.63 81.92,-368.37 78.71,-522.18 -88.07,-313.31 -266.07,-456.24 -266.07,-456.24z"/>
   <path class="fil5" d="M9946.41 11488.63c-24.39,169.32 -67.96,301.75 -68.03,301.82 126.09,-178.47 195.25,-362.76 232.8,-520.72 -24.99,-189.23 -88.47,-326.8 -88.47,-326.8 16.77,197.44 -23.12,388.48 -76.3,545.7z"/>
   <path class="fil6" d="M10077.3 11698.84c-49.71,30.27 -100.56,54.99 -151.81,74.77 51.25,-19.85 102.03,-44.57 151.81,-74.77z"/>
   <path class="fil7" d="M10308.03 11137.5c0.05,-0.4 0.19,-0.87 0.27,-1.27 -0.83,-0.67 -0.88,-0.2 -0.27,1.27z"/>
   <path class="fil8" d="M10267.73 11285.24c55.38,151.41 69.48,263.06 69.48,263.06 16.25,-74.1 34.29,-184.02 40.64,-267.14 -33.07,-78.11 -66.01,-133.84 -69.9,-143.66 -10.69,49.45 -24.39,99.03 -40.22,147.74z"/>
   <path class="fil9" d="M9706.39 11458.76c1.27,207.27 -34.74,376.19 -34.74,376.19 93.21,-186.76 147.46,-351.8 174.39,-494.79 -29.67,-318.72 -169.18,-528.67 -169.18,-528.67 69.76,218.37 61.47,452.96 29.53,647.27z"/>
   <path class="fil10" d="M10597.83 11007c59.13,98.83 93,216.23 112.05,327.55l119.59 -314.18 -231.64 -13.37z"/>
   <path class="fil11" d="M10448.6 11118.39c21.59,53.52 31.49,135.98 34.69,219.57 67.95,147.26 81.12,308.3 81.12,308.3 26.38,-136.31 20.9,-263.4 3.86,-364.63 -62.6,-99.03 -119.67,-163.24 -119.67,-163.24z"/>
   <path class="fil12" d="M9125.68 11460.3c63.87,0 120.6,-30.94 155.88,-78.65 -54.85,-149.67 -127.15,-243.68 -188.49,-306.09 -91.48,15.5 -161.17,95.08 -161.17,190.97 0,106.97 86.73,193.77 193.78,193.77z"/>
   <path class="fil13" d="M9145.32 11416.2c50.18,0 95.82,-19.11 130.23,-50.38 -54.06,-140.45 -123.35,-230.12 -182.48,-290.33 -56.46,9.56 -104.64,43.63 -133.24,90.81 -5.34,17.77 -8.28,36.62 -8.28,56.13 0,107.04 86.73,193.77 193.77,193.77z"/>
   <path class="fil14" d="M10022.71 10942.93c-64.15,-33.48 -129.63,-58.34 -194.98,-75.98 67.49,190.97 69.43,516.31 -156.08,968 42.69,-4.68 85.99,-12.03 129.36,-22.52 79.84,-139.85 253.64,-493.12 221.7,-869.5z"/>
   <path class="fil15" d="M9485.35 11839.29c38.69,2.34 78.51,2.81 119.14,0.94 58.53,-150.08 203.53,-618 72.36,-1028.8 -73.96,-8.49 -146.19,-8.89 -214.41,-3.28 54.25,124.22 186.48,534.08 22.91,1031.14z"/>
   <path class="fil16" d="M9377.31 11827.4c47.11,-156.62 170.06,-658.96 -79.24,-966.53 -16.31,3.88 -32.21,8.09 -47.65,12.5 -44.29,12.83 -85.59,28.86 -124.08,47.1 241.15,275.7 173.46,728.59 141.06,883.41 34.54,9.35 71.36,17.31 109.91,23.52z"/>
   <path class="fil17" d="M9300.8 11438.98c-6.54,-21.38 -13.43,-41.76 -20.64,-61.2 -10.49,111.65 -47.91,241.21 -133.57,382.87 37.68,16.44 78.11,30.47 121.14,41.56 15.17,-72.97 37.69,-209.94 33.07,-363.23z"/>
   <path class="fil18" d="M10597.83 11007c-27.94,19.31 -73.5,55.66 -95.75,64.62 40.34,65.14 115.25,301.35 62.33,574.63 44.56,24.53 104.25,53.19 164.04,87.14 1.67,-13.57 37.63,-445.15 -130.62,-726.39z"/>
   <path class="fil19" d="M10308.3 11136.16c-53.45,-42.29 -105.31,-74.3 -158.31,-113.59 -14.1,183.49 -70.48,483.17 -271.61,767.81 67.09,-22.05 133.98,-52.12 198.92,-91.61 85.05,-136.97 185.3,-351.19 231,-562.61z"/>
   <path class="fil20" d="M10475.33 11590.53c11.9,-104.84 20.05,-356.34 -26.73,-472.2 -20.77,19.57 -54.58,50.78 -71.28,69.02 11.96,63.81 -16.16,251.44 -40.11,360.82 37.89,11.22 86.87,22.32 138.12,42.36z"/>
   <path class="fil21" d="M9242.81 11250.89c0,74.57 -60.4,134.97 -134.97,134.97 -74.57,0 -134.98,-60.4 -134.98,-134.97 0,-74.57 60.41,-134.97 134.98,-134.97 74.5,0 134.97,60.4 134.97,134.97z"/>
   <path class="fil22" d="M9232.72 11240.8c0,74.51 -60.47,134.98 -134.97,134.98 -74.57,0 -134.98,-60.41 -134.98,-134.98 0,-74.57 60.41,-134.97 134.98,-134.97 74.57,0 134.97,60.47 134.97,134.97z"/>
   <path class="fil23" d="M9167.11 11247.35c0,36.95 -29.93,66.88 -66.89,66.88 -36.95,0 -66.88,-29.93 -66.88,-66.88 0,-36.95 29.93,-66.88 66.88,-66.88 36.96,0 66.89,29.93 66.89,66.88z"/>
   <path class="fil21" d="M9097.41 11223.83c0,12.7 -9.08,23.05 -20.31,23.05 -11.22,0 -20.31,-10.35 -20.31,-23.05 0,-12.7 9.09,-22.99 20.31,-22.99 11.23,0 20.31,10.29 20.31,22.99z"/>
   <path class="fil24" d="M10149.99 11022.64c-14.1,183.48 -70.48,483.16 -271.61,767.81 0,0 335.64,-369.77 354.75,-709.28 -27.68,-19.17 -55.2,-37.88 -83.14,-58.53z"/>
   <path class="fil25" d="M9734.86 11700.85c224.97,-356.35 200.39,-687.56 190.36,-801.96 -32.4,-12.49 -64.94,-23.12 -97.42,-31.87 60.81,171.99 68.29,453.1 -95.61,837.3 0.86,-1.2 1.87,-2.2 2.67,-3.47z"/>
   <path class="fil26" d="M10337.21 11548.23c18.18,5.35 38.98,10.69 61.28,17.04 29.48,-177.14 -10.82,-337.97 -20.29,-372.18 9.47,68.62 -17.65,248.83 -40.99,355.14z"/>
   <path class="fil27" d="M10564.41 11646.25c15.11,8.29 31.54,16.91 48.9,25.86 87.6,-406.92 -111.23,-600.49 -111.23,-600.49 40.34,65.14 115.25,301.35 62.33,574.63z"/>
   <path class="fil28" d="M9574.09 10804.68c-38.09,-0.74 -75.44,0.53 -111.65,3.47 54.25,124.22 186.55,534.08 22.91,1031.14 213.42,-514.3 117.87,-938.13 88.74,-1034.61z"/>
   <path class="fil29" d="M10728.51 11732.79c0.26,0.26 0.47,0.53 0.74,0.8 -0.08,-2.07 -0.21,-4.08 -0.27,-6.15 -0.21,2.6 -0.34,4.41 -0.47,5.35z"/>
  </g>
 </g>
</svg>
