<svg width="16" height="19" viewBox="0 0 16 19" fill="none" xmlns="http://www.w3.org/2000/svg">
<path fill-rule="evenodd" clip-rule="evenodd" d="M8.97396 18.5415C11.0897 17.0979 15.9166 13.3051 15.9166 8.75016C15.9166 4.37791 12.3722 0.833496 7.99992 0.833496C3.62766 0.833496 0.083252 4.37791 0.083252 8.75016C0.083252 13.3051 4.91017 17.0979 7.02587 18.5415C7.61751 18.9452 8.38233 18.9452 8.97396 18.5415ZM7.99992 11.2502C9.38063 11.2502 10.4999 10.1309 10.4999 8.75016C10.4999 7.36945 9.38063 6.25016 7.99992 6.25016C6.61921 6.25016 5.49992 7.36945 5.49992 8.75016C5.49992 10.1309 6.61921 11.2502 7.99992 11.2502Z" fill="white"/>
</svg>
