<svg width="16" height="16" viewBox="0 0 16 16" fill="none" xmlns="http://www.w3.org/2000/svg">
<path d="M11.4306 11.0671L10.9151 11.8403C10.8122 11.9947 10.6762 12.1264 10.4968 12.1738C9.90938 12.329 8.34981 12.3991 5.97542 10.0247C3.60102 7.65029 3.6711 6.0907 3.82633 5.50326C3.87371 5.32393 4.00541 5.18784 4.15975 5.08495L4.933 4.56945C5.5087 4.18565 5.66427 3.40782 5.28047 2.83212L3.82006 0.641504C3.48506 0.139007 2.83925 -0.0529745 2.28415 0.184924L1.62536 0.467265C1.1249 0.681747 0.716659 1.06668 0.473158 1.55368C0.269722 1.96055 0.112044 2.38901 0.09068 2.84341C0.0233543 4.27539 0.337351 7.80336 4.26705 11.7331C8.19674 15.6628 11.7247 15.9767 13.1567 15.9094C13.6111 15.888 14.0395 15.7304 14.4464 15.5269C14.9334 15.2834 15.3183 14.8752 15.5328 14.3747L15.8152 13.7159C16.0531 13.1608 15.8611 12.515 15.3586 12.18L13.168 10.7196C12.5923 10.3358 11.8144 10.4914 11.4306 11.0671Z" fill="white"/>
</svg>
